<svg width="15" height="15" viewBox="0 0 15 15" fill="none" xmlns="http://www.w3.org/2000/svg">
<path d="M9.6075 3.27004L8.27999 4.60504C7.7712 4.46851 7.23543 4.46837 6.72656 4.60462C6.21769 4.74087 5.75367 5.00872 5.38117 5.38122C5.00867 5.75372 4.74083 6.21773 4.60457 6.7266C4.46832 7.23547 4.46847 7.77124 4.60499 8.28004L2.53499 10.3425C1.54499 9.59254 0.719994 8.61754 0.149994 7.50004C1.00568 5.82217 2.40973 4.4876 4.12884 3.7181C5.84794 2.94859 7.7786 2.79048 9.59999 3.27004H9.6075ZM12.4575 4.65754C13.455 5.40754 14.28 6.38254 14.8575 7.50004C14.0012 9.18101 12.5947 10.5177 10.8724 11.2875C9.1501 12.0572 7.21601 12.2134 5.39249 11.73L6.71999 10.395C7.22879 10.5316 7.76456 10.5317 8.27343 10.3955C8.7823 10.2592 9.24632 9.99136 9.61882 9.61886C9.99132 9.24636 10.2592 8.78234 10.3954 8.27348C10.5317 7.76461 10.5315 7.22883 10.395 6.72004L12.465 4.65754H12.4575ZM12.27 1.66504L13.335 2.73004L2.72999 13.335L1.66499 12.27L12.27 1.66504V1.66504Z" fill="#35A7EE"/>
</svg>
