<svg width="15" height="15" viewBox="0 0 15 15" fill="none" xmlns="http://www.w3.org/2000/svg">
<path d="M0.149994 7.50001C0.840888 6.14477 1.89303 5.00694 3.19014 4.21227C4.48724 3.41759 5.97881 2.99701 7.49999 2.99701C9.02118 2.99701 10.5127 3.41759 11.8099 4.21227C13.107 5.00694 14.1591 6.14477 14.85 7.50001C14.1591 8.85525 13.107 9.99308 11.8099 10.7878C10.5127 11.5824 9.02118 12.003 7.49999 12.003C5.97881 12.003 4.48724 11.5824 3.19014 10.7878C1.89303 9.99308 0.840888 8.85525 0.149994 7.50001V7.50001ZM7.49999 10.5C8.29564 10.5 9.05871 10.1839 9.62131 9.62133C10.1839 9.05872 10.5 8.29566 10.5 7.50001C10.5 6.70436 10.1839 5.9413 9.62131 5.37869C9.05871 4.81608 8.29564 4.50001 7.49999 4.50001C6.70434 4.50001 5.94128 4.81608 5.37867 5.37869C4.81606 5.9413 4.49999 6.70436 4.49999 7.50001C4.49999 8.29566 4.81606 9.05872 5.37867 9.62133C5.94128 10.1839 6.70434 10.5 7.49999 10.5V10.5ZM7.49999 9.00001C7.10217 9.00001 6.72064 8.84197 6.43933 8.56067C6.15803 8.27937 5.99999 7.89784 5.99999 7.50001C5.99999 7.10219 6.15803 6.72066 6.43933 6.43935C6.72064 6.15805 7.10217 6.00001 7.49999 6.00001C7.89782 6.00001 8.27935 6.15805 8.56065 6.43935C8.84196 6.72066 8.99999 7.10219 8.99999 7.50001C8.99999 7.89784 8.84196 8.27937 8.56065 8.56067C8.27935 8.84197 7.89782 9.00001 7.49999 9.00001Z" fill="#35A7EE"/>
</svg>
