<svg width="20" height="19" viewBox="0 0 20 19" fill="none" xmlns="http://www.w3.org/2000/svg">
  <path d="M19 16C19 17.6569 17.6569 19 16 19H3C1.34315 19 0 17.6569 0 16V4C0 2.34315 1.34315 1 3 1H9.79289C10.2383 1 10.4614 1.53857 10.1464 1.85355C10.0527 1.94732 9.9255 2 9.79289 2H3C1.89543 2 1 2.89543 1 4V16C1 17.1046 1.89543 18 3 18H16C17.1046 18 18 17.1046 18 16V10.2071C18 10.0745 18.0527 9.94732 18.1464 9.85355C18.4614 9.53857 19 9.76165 19 10.2071V16Z" fill="#35A7EE"/>
  <path fill-rule="evenodd" clip-rule="evenodd" d="M14.3763 5.67075C14.5581 5.87857 14.5371 6.19445 14.3293 6.37629L10.3293 9.87629C10.1214 10.0581 9.80555 10.0371 9.62371 9.82925C9.44187 9.62143 9.46293 9.30555 9.67075 9.12371L13.6707 5.62371C13.8786 5.44187 14.1944 5.46293 14.3763 5.67075Z" fill="#35A7EE"/>
  <path fill-rule="evenodd" clip-rule="evenodd" d="M7.6515 11.6094C7.07128 11.1017 6.15904 11.4204 6.02112 12.1789C5.88812 12.9104 6.57685 13.5231 7.28789 13.3059C8.0322 13.0785 8.23721 12.1219 7.6515 11.6094ZM11.4385 11.042C10.6151 11.7787 9.37144 11.7856 8.53989 11.058L7.7756 10.3893C7.21934 9.90254 7.20036 9.04339 7.73642 8.53449C8.57498 7.73841 9.69944 6.67739 10.844 5.61674C11.3233 5.17255 11.8055 4.72901 12.2713 4.30537C13.1172 3.53596 14.4065 3.54999 15.25 4.32211C16.229 5.21821 16.2202 6.76364 15.2312 7.64857L11.4385 11.042ZM18.1522 6.3768L10.7858 12.9679C10.4337 13.2829 10.0174 13.5175 9.56558 13.6556L9.29739 13.7375C7.08646 14.4131 4.94491 12.5079 5.35847 10.2334L5.50807 9.41056C5.52687 9.30716 5.57777 9.21232 5.65354 9.1395L6 9.5C5.65354 9.1395 5.65354 9.1395 5.65354 9.1395L5.75347 9.04361C5.81856 8.98121 5.91406 8.88974 6.0358 8.77335C6.27927 8.54059 6.62774 8.20815 7.04792 7.80926C7.88815 7.01159 9.01575 5.94761 10.1643 4.88326C11.3119 3.81972 12.4839 2.75256 13.4119 1.94995C13.875 1.54943 14.2834 1.20951 14.6002 0.967741C14.7576 0.847635 14.9012 0.744959 15.0225 0.670059C15.0827 0.632907 15.1469 0.596569 15.2109 0.567944C15.2602 0.545908 15.3692 0.5 15.5 0.5C15.7295 0.5 15.9489 0.614267 16.0929 0.699378C16.2625 0.799529 16.4483 0.935068 16.6372 1.08717C17.0166 1.39285 17.4488 1.79839 17.8537 2.21326C18.2591 2.62856 18.6476 3.06389 18.9381 3.43281C19.0826 3.61627 19.2099 3.79208 19.3036 3.94609C19.3503 4.02277 19.3943 4.10323 19.4281 4.18288C19.4575 4.252 19.5 4.36739 19.5 4.5C19.5 4.78632 19.3474 5.05138 19.2311 5.22427C19.0992 5.42048 18.9316 5.61477 18.7759 5.78018C18.6182 5.94775 18.462 6.09702 18.3461 6.20375C18.2878 6.25738 18.2391 6.3009 18.2045 6.33134L18.1637 6.36696L18.1522 6.3768ZM17.5878 5.1064C17.7201 5.22749 17.9248 5.2254 18.0477 5.09482C18.1861 4.94773 18.3125 4.79827 18.4012 4.66636C18.4223 4.63506 18.4388 4.60815 18.4519 4.58542C18.4732 4.54822 18.4717 4.50266 18.4494 4.46602C18.385 4.36026 18.2849 4.21966 18.1525 4.05156C17.8893 3.71736 17.5258 3.30894 17.1381 2.91174C16.75 2.51411 16.3481 2.1384 16.0098 1.86595C15.8398 1.72899 15.6959 1.62625 15.5844 1.56039C15.5523 1.54146 15.5125 1.54308 15.4815 1.56377C15.4088 1.61245 15.3173 1.67848 15.2069 1.76273C14.841 2.04186 14.8329 2.58456 15.1723 2.89526L17.5878 5.1064ZM15.6192 1.48082C15.627 1.47732 15.6259 1.47853 15.6174 1.48161L15.6192 1.48082Z" fill="#35A7EE"/>
</svg>
